<?xml version="1.0" encoding="utf-8"?>
<!-- Generator: Adobe Illustrator 16.0.1, SVG Export Plug-In . SVG Version: 6.00 Build 0)  -->
<!DOCTYPE svg PUBLIC "-//W3C//DTD SVG 1.1//EN" "http://www.w3.org/Graphics/SVG/1.1/DTD/svg11.dtd">
<svg version="1.1" id="Layer_1" xmlns="http://www.w3.org/2000/svg" xmlns:xlink="http://www.w3.org/1999/xlink" x="0px" y="0px"
	 width="200px" height="55px" viewBox="0 0 200 55" enable-background="new 0 0 200 55" xml:space="preserve">
<g enable-background="new    ">
	<path fill="#3EBCA4" d="M9.6,15.95c1,0,1.95,0.2,2.8,0.55c0.85,0.4,1.6,0.9,2.3,1.55c0.65,0.65,1.2,1.45,1.55,2.3
		c0.4,0.85,0.55,1.8,0.55,2.8v22.9c0,0.25-0.1,0.5-0.3,0.7s-0.45,0.3-0.7,0.3h-2c-0.3,0-0.55-0.1-0.7-0.3c-0.2-0.2-0.3-0.45-0.3-0.7
		V23.2c0-0.9-0.3-1.65-0.95-2.25C11.25,20.3,10.5,20,9.6,20s-1.7,0.3-2.35,0.95C6.6,21.6,6.3,22.35,6.3,23.2V46.1
		c0,0.25-0.1,0.5-0.3,0.7s-0.45,0.3-0.7,0.3h-2c-0.3,0-0.55-0.1-0.7-0.3c-0.2-0.2-0.3-0.45-0.3-0.7V23.2c0-1,0.2-1.95,0.55-2.8
		c0.4-0.85,0.9-1.6,1.55-2.3c0.65-0.65,1.45-1.2,2.35-1.55C7.65,16.15,8.6,15.95,9.6,15.95z M15.15,23.2c0-1.55-0.55-2.85-1.6-3.95
		c-1.05-1.05-2.4-1.6-3.95-1.6c-1.55,0-2.85,0.55-3.95,1.6C4.55,20.35,4,21.65,4,23.2v21.95C4,45.3,4.1,45.4,4.25,45.4H4.4
		c0.2,0,0.3-0.101,0.3-0.25V23.2c0-1.35,0.5-2.5,1.45-3.45C7.1,18.8,8.25,18.3,9.6,18.3s2.5,0.5,3.45,1.45
		c0.95,0.95,1.45,2.1,1.45,3.45v21.95c0,0.149,0.1,0.25,0.25,0.25h0.15c0.15,0,0.25-0.101,0.25-0.25V23.2z"/>
	<path fill="#3EBCA4" d="M29.35,15.95c1,0,1.95,0.2,2.8,0.55c0.85,0.4,1.6,0.9,2.3,1.55c0.65,0.65,1.2,1.45,1.55,2.3
		c0.4,0.85,0.55,1.8,0.55,2.8v16.6c0,1-0.2,1.95-0.55,2.85c-0.35,0.9-0.9,1.65-1.55,2.351c-0.65,0.649-1.45,1.2-2.3,1.55
		c-0.85,0.4-1.8,0.55-2.8,0.55s-1.95-0.2-2.85-0.55c-0.9-0.4-1.65-0.9-2.35-1.55c-0.65-0.65-1.2-1.45-1.55-2.351
		c-0.4-0.899-0.55-1.8-0.55-2.85V23.2c0-1,0.2-1.95,0.55-2.8c0.4-0.85,0.9-1.6,1.55-2.3c0.65-0.65,1.45-1.2,2.35-1.55
		C27.4,16.15,28.35,15.95,29.35,15.95z M34.9,23.2c0-1.55-0.55-2.85-1.6-3.95c-1.05-1.05-2.4-1.6-3.95-1.6
		c-1.55,0-2.85,0.55-3.95,1.6s-1.65,2.4-1.65,3.95v16.6c0,1.55,0.55,2.851,1.65,3.95s2.4,1.65,3.95,1.65
		c1.55,0,2.85-0.551,3.95-1.65c1.05-1.1,1.6-2.4,1.6-3.95V23.2z M29.35,18.3c1.35,0,2.5,0.5,3.45,1.45c0.95,0.95,1.45,2.1,1.45,3.45
		v16.6c0,1.351-0.5,2.5-1.45,3.45c-0.95,0.95-2.1,1.45-3.45,1.45s-2.5-0.5-3.45-1.45c-0.95-0.95-1.45-2.1-1.45-3.45V23.2
		c0-1.35,0.5-2.5,1.45-3.45C26.85,18.8,28,18.3,29.35,18.3z M32.55,23.2c0-0.9-0.3-1.65-0.95-2.25C31,20.3,30.25,20,29.35,20
		s-1.7,0.3-2.35,0.95c-0.65,0.65-0.95,1.4-0.95,2.25v16.6c0,0.9,0.3,1.7,0.95,2.351c0.65,0.649,1.4,0.949,2.35,0.949
		c0.9,0,1.65-0.3,2.25-0.949c0.65-0.65,0.95-1.4,0.95-2.351V23.2z"/>
	<path fill="#3EBCA4" d="M59.55,15.95c1,0,1.95,0.2,2.85,0.55c0.9,0.4,1.65,0.9,2.35,1.55c0.65,0.65,1.2,1.45,1.55,2.3
		c0.4,0.85,0.55,1.8,0.55,2.8v22.9c0,0.25-0.1,0.5-0.3,0.7c-0.2,0.2-0.45,0.3-0.7,0.3h-2c-0.3,0-0.55-0.1-0.7-0.3
		c-0.2-0.2-0.3-0.45-0.3-0.7V23.2c0-0.9-0.3-1.65-0.95-2.25C61.25,20.3,60.5,20,59.55,20c-0.9,0-1.65,0.3-2.25,0.95
		c-0.65,0.65-0.95,1.4-0.95,2.25V46.1c0,0.25-0.1,0.5-0.3,0.7c-0.2,0.2-0.45,0.3-0.7,0.3h-2c-0.3,0-0.55-0.1-0.7-0.3
		c-0.2-0.2-0.3-0.45-0.3-0.7V23.2c0-0.9-0.3-1.65-0.95-2.25C50.75,20.3,50,20,49.15,20c-0.9,0-1.7,0.3-2.35,0.95
		c-0.65,0.65-0.95,1.4-0.95,2.25V46.1c0,0.25-0.1,0.5-0.3,0.7c-0.2,0.2-0.45,0.3-0.7,0.3h-2c-0.25,0-0.5-0.1-0.7-0.3
		c-0.2-0.2-0.3-0.45-0.3-0.7V23.2c0-1,0.2-1.95,0.55-2.8c0.4-0.85,0.9-1.6,1.55-2.3c0.65-0.65,1.45-1.2,2.35-1.55
		c0.9-0.4,1.8-0.55,2.85-0.55c1.05,0,1.95,0.2,2.85,0.6s1.7,0.95,2.35,1.65C55,17.55,55.8,17,56.7,16.6
		C57.6,16.15,58.55,15.95,59.55,15.95z M65.15,23.2c0-1.55-0.55-2.85-1.65-3.95c-1.1-1.05-2.4-1.6-3.95-1.6c-1.2,0-2.3,0.35-3.25,1
		c-0.95,0.65-1.6,1.55-2,2.65c-0.4-1.1-1.05-1.95-2-2.65c-0.95-0.65-2-1-3.25-1c-1.55,0-2.85,0.55-3.95,1.6s-1.65,2.4-1.65,3.95
		v21.95c0,0.149,0.1,0.25,0.25,0.25h0.15c0.2,0,0.3-0.101,0.3-0.25V23.2c0-1.35,0.5-2.5,1.45-3.45c0.95-0.95,2.1-1.45,3.45-1.45
		c1.35,0,2.5,0.5,3.45,1.45s1.45,2.1,1.45,3.45v21.95c0,0.149,0.1,0.25,0.25,0.25h0.15c0.15,0,0.25-0.101,0.25-0.25V23.2
		c0-1.35,0.5-2.5,1.45-3.45c0.95-0.95,2.1-1.45,3.45-1.45s2.5,0.5,3.45,1.45c0.95,0.95,1.45,2.1,1.45,3.45v21.95
		c0,0.149,0.1,0.25,0.3,0.25h0.15c0.15,0,0.25-0.101,0.25-0.25V23.2H65.15z"/>
	<path fill="#3EBCA4" d="M80.25,15.95c0.65,0,1,0.35,1,1v2c0,0.65-0.35,1-1,1H77.4v26.1c0,0.25-0.1,0.5-0.3,0.7
		c-0.2,0.2-0.45,0.3-0.7,0.3h-2c-0.3,0-0.55-0.1-0.7-0.3c-0.2-0.2-0.3-0.45-0.3-0.7V20h-2.85c-0.65,0-1-0.35-1-1v-2
		c0-0.65,0.35-1,1-1h9.7V15.95z M79.55,17.9c0-0.15-0.1-0.25-0.25-0.25h-7.8c-0.15,0-0.25,0.1-0.25,0.25v0.15
		c0,0.15,0.1,0.25,0.25,0.25h3.6V45.15c0,0.149,0.1,0.25,0.25,0.25h0.15c0.15,0,0.25-0.101,0.25-0.25V18.3h3.6
		c0.15,0,0.25-0.1,0.25-0.25V17.9H79.55z"/>
	<path fill="#3EBCA4" d="M99.95,26.2c0,2.149-0.75,3.899-2.2,5.3c1.45,1.4,2.2,3.1,2.2,5.2v9.35c0,0.25-0.1,0.5-0.3,0.7
		c-0.2,0.2-0.45,0.3-0.7,0.3h-2c-0.3,0-0.55-0.1-0.7-0.3c-0.2-0.2-0.3-0.45-0.3-0.7V36.7c0-0.9-0.3-1.65-0.95-2.25
		c-0.65-0.65-1.4-0.95-2.25-0.95h-3.2v12.6c0,0.25-0.1,0.5-0.3,0.7s-0.45,0.3-0.7,0.3h-2c-0.3,0-0.55-0.1-0.7-0.3
		c-0.2-0.2-0.3-0.45-0.3-0.7V18c0-0.6,0.2-1.05,0.55-1.45c0.4-0.4,0.85-0.55,1.45-0.55h5.2c1,0,1.95,0.2,2.85,0.55
		c0.9,0.4,1.65,0.9,2.3,1.55s1.15,1.45,1.55,2.3c0.4,0.85,0.55,1.8,0.55,2.8v3H99.95z M98.35,23.2c0-1.55-0.55-2.85-1.65-3.95
		c-1.1-1.05-2.4-1.6-3.95-1.6H87.5c-0.25,0-0.4,0.1-0.4,0.3V45.1c0,0.15,0.1,0.25,0.25,0.25h0.2c0.15,0,0.25-0.1,0.25-0.25V31.8h4.9
		c1.35,0,2.5,0.5,3.45,1.45c0.95,0.95,1.45,2.1,1.45,3.45v8.45c0,0.149,0.1,0.25,0.25,0.25H98c0.2,0,0.3-0.101,0.3-0.25V36.7
		c0-1.2-0.35-2.3-1.05-3.25s-1.6-1.601-2.65-2c1.1-0.4,2-1.101,2.65-2.05c0.7-0.95,1.05-2,1.05-3.25V23.2H98.35z M92.75,18.3
		c1.35,0,2.5,0.5,3.45,1.45c0.95,0.95,1.45,2.1,1.45,3.45v3c0,1.35-0.5,2.5-1.45,3.45C95.25,30.6,94.1,31.1,92.75,31.1h-4.9V18.3
		H92.75z M95.95,23.2c0-0.9-0.3-1.65-0.95-2.25C94.35,20.3,93.6,20,92.75,20h-3.2v9.5h3.2c0.9,0,1.65-0.3,2.25-0.95
		c0.65-0.65,0.95-1.4,0.95-2.35V23.2z"/>
	<path fill="#3EBCA4" d="M109.2,46.1c0,0.65-0.351,1-1,1h-2c-0.65,0-1-0.35-1-1V17c0-0.65,0.35-1,1-1h2c0.25,0,0.5,0.1,0.7,0.3
		c0.199,0.2,0.3,0.45,0.3,0.7V46.1z M107.5,17.9c0-0.15-0.1-0.25-0.25-0.25h-0.15c-0.199,0-0.3,0.1-0.3,0.25v27.25
		c0,0.149,0.101,0.25,0.3,0.25h0.15c0.15,0,0.25-0.101,0.25-0.25V17.9z"/>
	<path fill="#3EBCA4" d="M121.7,15.95c1,0,1.95,0.2,2.8,0.55c0.85,0.4,1.6,0.9,2.3,1.55c0.65,0.65,1.2,1.45,1.55,2.3
		c0.4,0.85,0.551,1.8,0.551,2.8v3c0,1-0.2,1.95-0.551,2.85c-0.399,0.9-0.899,1.65-1.55,2.35c-0.649,0.65-1.45,1.2-2.3,1.551
		c-0.85,0.399-1.8,0.55-2.8,0.55h-3.25v12.6c0,0.25-0.101,0.5-0.3,0.7c-0.2,0.2-0.45,0.3-0.7,0.3h-2c-0.25,0-0.5-0.1-0.7-0.3
		s-0.3-0.45-0.3-0.7V33.5v-4V17c0-0.3,0.1-0.55,0.3-0.7c0.2-0.2,0.45-0.3,0.7-0.3h6.25V15.95z M127.3,23.2
		c0-1.55-0.55-2.85-1.649-3.95c-1.101-1.05-2.4-1.6-3.95-1.6h-5.351c-0.149,0-0.25,0.1-0.25,0.25v13.2v0.7V45.15
		c0,0.149,0.101,0.25,0.25,0.25h0.2c0.15,0,0.25-0.101,0.25-0.25V31.8h4.9c1.55,0,2.85-0.55,3.95-1.649
		c1.1-1.101,1.649-2.4,1.649-3.95V23.2z M121.7,18.3c1.35,0,2.5,0.5,3.45,1.45c0.949,0.95,1.449,2.1,1.449,3.45v3
		c0,1.35-0.5,2.5-1.449,3.45C124.2,30.6,123.05,31.1,121.7,31.1h-4.9V18.3H121.7z M124.95,23.2c0-0.9-0.3-1.65-0.95-2.25
		c-0.65-0.65-1.4-0.95-2.25-0.95h-3.25v9.5h3.25c0.9,0,1.65-0.3,2.25-0.95c0.65-0.65,0.95-1.4,0.95-2.35V23.2z"/>
	<path fill="#3EBCA4" d="M143.65,26.35c-0.65,0-1-0.35-1-1V23.2c0-0.9-0.301-1.65-0.95-2.25c-0.65-0.65-1.4-0.95-2.25-0.95
		c-0.851,0-1.65,0.3-2.25,0.95c-0.65,0.65-0.95,1.4-0.95,2.25c0,0.4,0,0.65,0.05,0.75c0,0.1,0.05,0.2,0.15,0.3l8.75,11.55
		c0.399,0.5,0.649,0.9,0.899,1.2c0.2,0.3,0.351,0.55,0.45,0.8c0.101,0.25,0.15,0.5,0.15,0.8c0,0.301,0.05,0.7,0.05,1.2
		c0,1-0.2,1.95-0.55,2.8c-0.4,0.851-0.9,1.601-1.55,2.301c-0.65,0.649-1.45,1.199-2.301,1.55c-0.85,0.399-1.8,0.55-2.8,0.55
		s-1.95-0.2-2.8-0.55c-0.85-0.4-1.6-0.9-2.3-1.55c-0.65-0.65-1.2-1.45-1.55-2.301c-0.4-0.85-0.551-1.8-0.551-2.8V37.65
		c0-0.65,0.351-1,1-1h2c0.65,0,1,0.35,1,1V39.8c0,0.9,0.301,1.65,0.95,2.25c0.65,0.601,1.4,0.95,2.25,0.95
		c0.851,0,1.65-0.3,2.25-0.95c0.65-0.649,0.95-1.399,0.95-2.25c0-0.399,0-0.649-0.05-0.75c0-0.1-0.05-0.2-0.15-0.3L133.8,27.2
		c-0.399-0.5-0.649-0.9-0.899-1.2c-0.2-0.3-0.351-0.55-0.45-0.8c-0.101-0.25-0.15-0.5-0.15-0.8c0-0.3-0.05-0.7-0.05-1.2
		c0-1,0.2-1.95,0.55-2.8c0.4-0.85,0.9-1.6,1.55-2.3c0.65-0.65,1.45-1.2,2.301-1.55c0.85-0.4,1.8-0.55,2.8-0.55s1.95,0.2,2.8,0.55
		c0.85,0.4,1.6,0.9,2.3,1.55c0.65,0.65,1.2,1.45,1.55,2.3c0.4,0.85,0.551,1.8,0.551,2.8v2.15c0,0.65-0.351,1-1,1H143.65z
		 M139.45,18.3c1.35,0,2.5,0.5,3.45,1.45c0.949,0.95,1.449,2.1,1.449,3.45v1.2c0,0.2,0.101,0.3,0.25,0.3h0.15
		c0.15,0,0.25-0.1,0.25-0.3v-1.2c0-1.55-0.55-2.85-1.6-3.95c-1.051-1.1-2.4-1.6-3.95-1.6c-1.601,0-2.9,0.55-3.9,1.65
		c-0.55,0.5-0.95,1.1-1.25,1.8c-0.25,0.7-0.399,1.4-0.399,2.1v0.05V23.2v0.05V24c0,0.2,0.05,0.4,0.1,0.65c0.05,0.2,0.15,0.4,0.3,0.5
		l9.8,13.15c0.15,0.25,0.25,0.5,0.25,0.75v0.75v0.05V39.8v0.05c0,1.351-0.5,2.5-1.449,3.45c-0.95,0.95-2.101,1.45-3.45,1.45
		c-1.351,0-2.5-0.5-3.45-1.45s-1.45-2.1-1.45-3.45V38.65c0-0.2-0.1-0.301-0.25-0.301h-0.149c-0.15,0-0.25,0.101-0.25,0.301v1.199
		c0,1.551,0.55,2.851,1.6,3.95c1.05,1.05,2.4,1.601,3.95,1.601c1.6,0,2.899-0.551,3.899-1.65c1.101-1,1.65-2.3,1.65-3.9V39.8v-0.75
		c0-0.2-0.05-0.399-0.1-0.649c-0.051-0.2-0.15-0.4-0.301-0.5l-9.8-13.15c-0.149-0.25-0.25-0.5-0.25-0.75v-0.75V23.2
		c0-1.35,0.5-2.5,1.45-3.45S138.1,18.3,139.45,18.3z"/>
</g>
<g>
	<polygon fill="#3EBCA4" points="182.6,49.3 182.5,32.55 192.4,28.75 186.35,47.85 	"/>
	<g id="ZKRvVs.tif_2_">
		<g>
			<path fill="#F6EB0F" d="M163.65,38.8c-0.25,3.351-2.351,5.9-5.7,6.3c-1.601,0.2-3.25,0.2-4.8-0.399c-0.2-0.101-0.4-0.2-0.601-0.3
				c-0.1-0.051-0.149-0.101-0.45-0.351c1.351-0.35,2.601-0.25,3.601-0.7c0.25-0.1,2.2-1.699,2.399-1.899c-0.25,0-2.8,0.55-3.05,0.6
				c-1.05,0.351-2.1,0.8-3.149,1.15c-0.2,0.05-0.351,0.05-0.601,0.1c0.2-0.05-0.149,0-0.2-0.1c0.601-0.3,1.301-0.55,1.9-0.851
				c0.65-0.3,1.4-0.649,2-0.949c0.15-0.101,2.35-1.4,2.45-1.551c-0.2-0.05-2.7,0.75-2.851,0.801c-1.199,0.449-2.35,0.899-3.55,1.35
				c-0.149,0.05-0.25,0.05-0.399,0.05c-0.051-0.05-0.101-0.1-0.15-0.149c0.15-0.15,0.4-0.301,0.6-0.4c1-0.5,2-0.85,3-1.4
				c0.4-0.199,2.7-1.6,2.9-1.8c-0.25,0-2.95,0.25-3.5,0.55c-0.75,0.25-1.35,0.7-2.05,1c-0.3,0.101-0.55,0.4-1,0.7
				c0.149-0.45,0.2-0.85,0.35-1.2c1.05-2.1,2.601-3.75,4.7-4.699c2.3-1,4.7-0.351,6.6,1.149"/>
		</g>
	</g>
	<g>
		<path fill="#3EBCA4" d="M162.1,35.95c4-2.15,24.851-12.65,28.95-14.7c1.65-0.8,3.15-1.3,4.65-1.3c0.649,0,1.35,0.05,2,0.25
			c1.6,0.5,2.25,1.95,1.55,3.45c-0.7,1.6-2,2.65-3.55,3.25c-3.15,1.3-29,10.85-32.25,11.95"/>
	</g>
	
		<ellipse transform="matrix(-0.396 -0.9183 0.9183 -0.396 193.291 201.7353)" fill="#3EBCA4" cx="162.997" cy="37.293" rx="1.65" ry="1.301"/>
	<polygon fill="#3EBCA4" points="167.5,14.8 179.75,26.2 189.25,21.5 171.1,13 	"/>
	<polygon fill="#3EBCA4" points="168.4,43.75 168.35,37.85 172.6,36.15 171.45,42.55 	"/>
	<polygon fill="#3EBCA4" points="162.15,28.85 166.4,32.95 170.55,31.05 165.15,27.45 	"/>
</g>
</svg>
