<?xml version="1.0" encoding="utf-8"?>
<!-- Generator: Adobe Illustrator 17.1.0, SVG Export Plug-In . SVG Version: 6.00 Build 0)  -->
<!DOCTYPE svg PUBLIC "-//W3C//DTD SVG 1.1//EN" "http://www.w3.org/Graphics/SVG/1.1/DTD/svg11.dtd">
<svg version="1.1" id="Layer_1" xmlns="http://www.w3.org/2000/svg" xmlns:xlink="http://www.w3.org/1999/xlink" x="0px" y="0px"
	 viewBox="0 0 400 110" enable-background="new 0 0 400 110" xml:space="preserve">
<g enable-background="new    ">
	<path fill="#FFFFFF" d="M19.2,31.9c2,0,3.9,0.4,5.6,1.1c1.7,0.8,3.2,1.8,4.6,3.1c1.3,1.3,2.4,2.9,3.1,4.6c0.8,1.7,1.1,3.6,1.1,5.6
		v45.8c0,0.5-0.2,1-0.6,1.4c-0.4,0.4-0.9,0.6-1.4,0.6h-4c-0.6,0-1.1-0.2-1.4-0.6c-0.4-0.4-0.6-0.9-0.6-1.4V46.4
		c0-1.8-0.6-3.3-1.9-4.5C22.5,40.6,21,40,19.2,40c-1.8,0-3.4,0.6-4.7,1.9c-1.3,1.3-1.9,2.8-1.9,4.5v45.8c0,0.5-0.2,1-0.6,1.4
		c-0.4,0.4-0.9,0.6-1.4,0.6h-4c-0.6,0-1.1-0.2-1.4-0.6c-0.4-0.4-0.6-0.9-0.6-1.4V46.4c0-2,0.4-3.9,1.1-5.6c0.8-1.7,1.8-3.2,3.1-4.6
		c1.3-1.3,2.9-2.4,4.7-3.1C15.3,32.3,17.2,31.9,19.2,31.9z M30.3,46.4c0-3.1-1.1-5.7-3.2-7.9c-2.1-2.1-4.8-3.2-7.9-3.2
		c-3.1,0-5.7,1.1-7.9,3.2C9.1,40.7,8,43.3,8,46.4v43.9c0,0.3,0.2,0.5,0.5,0.5h0.3c0.4,0,0.6-0.2,0.6-0.5V46.4c0-2.7,1-5,2.9-6.9
		c1.9-1.9,4.2-2.9,6.9-2.9c2.7,0,5,1,6.9,2.9c1.9,1.9,2.9,4.2,2.9,6.9v43.9c0,0.3,0.2,0.5,0.5,0.5h0.3c0.3,0,0.5-0.2,0.5-0.5V46.4z"
		/>
	<path fill="#FFFFFF" d="M58.7,31.9c2,0,3.9,0.4,5.6,1.1c1.7,0.8,3.2,1.8,4.6,3.1c1.3,1.3,2.4,2.9,3.1,4.6c0.8,1.7,1.1,3.6,1.1,5.6
		v33.2c0,2-0.4,3.9-1.1,5.7s-1.8,3.3-3.1,4.7c-1.3,1.3-2.9,2.4-4.6,3.1c-1.7,0.8-3.6,1.1-5.6,1.1s-3.9-0.4-5.7-1.1
		c-1.8-0.8-3.3-1.8-4.7-3.1c-1.3-1.3-2.4-2.9-3.1-4.7c-0.8-1.8-1.1-3.6-1.1-5.7V46.4c0-2,0.4-3.9,1.1-5.6c0.8-1.7,1.8-3.2,3.1-4.6
		c1.3-1.3,2.9-2.4,4.7-3.1C54.8,32.3,56.7,31.9,58.7,31.9z M69.8,46.4c0-3.1-1.1-5.7-3.2-7.9c-2.1-2.1-4.8-3.2-7.9-3.2
		c-3.1,0-5.7,1.1-7.9,3.2c-2.2,2.1-3.3,4.8-3.3,7.9v33.2c0,3.1,1.1,5.7,3.3,7.9c2.2,2.2,4.8,3.3,7.9,3.3c3.1,0,5.7-1.1,7.9-3.3
		c2.1-2.2,3.2-4.8,3.2-7.9V46.4z M58.7,36.6c2.7,0,5,1,6.9,2.9c1.9,1.9,2.9,4.2,2.9,6.9v33.2c0,2.7-1,5-2.9,6.9
		c-1.9,1.9-4.2,2.9-6.9,2.9c-2.7,0-5-1-6.9-2.9c-1.9-1.9-2.9-4.2-2.9-6.9V46.4c0-2.7,1-5,2.9-6.9C53.7,37.6,56,36.6,58.7,36.6z
		 M65.1,46.4c0-1.8-0.6-3.3-1.9-4.5C62,40.6,60.5,40,58.7,40c-1.8,0-3.4,0.6-4.7,1.9c-1.3,1.3-1.9,2.8-1.9,4.5v33.2
		c0,1.8,0.6,3.4,1.9,4.7c1.3,1.3,2.8,1.9,4.7,1.9c1.8,0,3.3-0.6,4.5-1.9c1.3-1.3,1.9-2.8,1.9-4.7V46.4z"/>
	<path fill="#FFFFFF" d="M119.1,31.9c2,0,3.9,0.4,5.7,1.1c1.8,0.8,3.3,1.8,4.7,3.1c1.3,1.3,2.4,2.9,3.1,4.6c0.8,1.7,1.1,3.6,1.1,5.6
		v45.8c0,0.5-0.2,1-0.6,1.4c-0.4,0.4-0.9,0.6-1.4,0.6h-4c-0.6,0-1.1-0.2-1.4-0.6c-0.4-0.4-0.6-0.9-0.6-1.4V46.4
		c0-1.8-0.6-3.3-1.9-4.5c-1.3-1.3-2.8-1.9-4.7-1.9c-1.8,0-3.3,0.6-4.5,1.9c-1.3,1.3-1.9,2.8-1.9,4.5v45.8c0,0.5-0.2,1-0.6,1.4
		c-0.4,0.4-0.9,0.6-1.4,0.6h-4c-0.6,0-1.1-0.2-1.4-0.6c-0.4-0.4-0.6-0.9-0.6-1.4V46.4c0-1.8-0.6-3.3-1.9-4.5
		c-1.3-1.3-2.8-1.9-4.5-1.9c-1.8,0-3.4,0.6-4.7,1.9c-1.3,1.3-1.9,2.8-1.9,4.5v45.8c0,0.5-0.2,1-0.6,1.4c-0.4,0.4-0.9,0.6-1.4,0.6h-4
		c-0.5,0-1-0.2-1.4-0.6c-0.4-0.4-0.6-0.9-0.6-1.4V46.4c0-2,0.4-3.9,1.1-5.6c0.8-1.7,1.8-3.2,3.1-4.6c1.3-1.3,2.9-2.4,4.7-3.1
		c1.8-0.8,3.6-1.1,5.7-1.1s3.9,0.4,5.7,1.2c1.8,0.8,3.4,1.9,4.7,3.3c1.3-1.4,2.9-2.5,4.7-3.3C115.2,32.3,117.1,31.9,119.1,31.9z
		 M130.3,46.4c0-3.1-1.1-5.7-3.3-7.9c-2.2-2.1-4.8-3.2-7.9-3.2c-2.4,0-4.6,0.7-6.5,2c-1.9,1.3-3.2,3.1-4,5.3c-0.8-2.2-2.1-3.9-4-5.3
		c-1.9-1.3-4-2-6.5-2c-3.1,0-5.7,1.1-7.9,3.2c-2.2,2.1-3.3,4.8-3.3,7.9v43.9c0,0.3,0.2,0.5,0.5,0.5h0.3c0.4,0,0.6-0.2,0.6-0.5V46.4
		c0-2.7,1-5,2.9-6.9c1.9-1.9,4.2-2.9,6.9-2.9c2.7,0,5,1,6.9,2.9c1.9,1.9,2.9,4.2,2.9,6.9v43.9c0,0.3,0.2,0.5,0.5,0.5h0.3
		c0.3,0,0.5-0.2,0.5-0.5V46.4c0-2.7,1-5,2.9-6.9c1.9-1.9,4.2-2.9,6.9-2.9c2.7,0,5,1,6.9,2.9c1.9,1.9,2.9,4.2,2.9,6.9v43.9
		c0,0.3,0.2,0.5,0.6,0.5h0.3c0.3,0,0.5-0.2,0.5-0.5V46.4z"/>
	<path fill="#FFFFFF" d="M160.5,31.9c1.3,0,2,0.7,2,2v4c0,1.3-0.7,2-2,2h-5.7v52.2c0,0.5-0.2,1-0.6,1.4c-0.4,0.4-0.9,0.6-1.4,0.6h-4
		c-0.6,0-1.1-0.2-1.4-0.6c-0.4-0.4-0.6-0.9-0.6-1.4V40h-5.7c-1.3,0-2-0.7-2-2v-4c0-1.3,0.7-2,2-2H160.5z M159.1,35.8
		c0-0.3-0.2-0.5-0.5-0.5H143c-0.3,0-0.5,0.2-0.5,0.5v0.3c0,0.3,0.2,0.5,0.5,0.5h7.2v53.7c0,0.3,0.2,0.5,0.5,0.5h0.3
		c0.3,0,0.5-0.2,0.5-0.5V36.6h7.2c0.3,0,0.5-0.2,0.5-0.5V35.8z"/>
	<path fill="#FFFFFF" d="M199.9,52.4c0,4.3-1.5,7.8-4.4,10.6c2.9,2.8,4.4,6.2,4.4,10.4v18.7c0,0.5-0.2,1-0.6,1.4
		c-0.4,0.4-0.9,0.6-1.4,0.6h-4c-0.6,0-1.1-0.2-1.4-0.6c-0.4-0.4-0.6-0.9-0.6-1.4V73.4c0-1.8-0.6-3.3-1.9-4.5
		c-1.3-1.3-2.8-1.9-4.5-1.9h-6.4v25.2c0,0.5-0.2,1-0.6,1.4c-0.4,0.4-0.9,0.6-1.4,0.6h-4c-0.6,0-1.1-0.2-1.4-0.6
		c-0.4-0.4-0.6-0.9-0.6-1.4V36c0-1.2,0.4-2.1,1.1-2.9c0.8-0.8,1.7-1.1,2.9-1.1h10.4c2,0,3.9,0.4,5.7,1.1c1.8,0.8,3.3,1.8,4.6,3.1
		c1.3,1.3,2.3,2.9,3.1,4.6c0.8,1.7,1.1,3.6,1.1,5.6V52.4z M196.7,46.4c0-3.1-1.1-5.7-3.3-7.9c-2.2-2.1-4.8-3.2-7.9-3.2H175
		c-0.5,0-0.8,0.2-0.8,0.6v54.3c0,0.3,0.2,0.5,0.5,0.5h0.4c0.3,0,0.5-0.2,0.5-0.5V63.6h9.8c2.7,0,5,1,6.9,2.9
		c1.9,1.9,2.9,4.2,2.9,6.9v16.9c0,0.3,0.2,0.5,0.5,0.5h0.3c0.4,0,0.6-0.2,0.6-0.5V73.4c0-2.4-0.7-4.6-2.1-6.5
		c-1.4-1.9-3.2-3.2-5.3-4c2.2-0.8,4-2.2,5.3-4.1c1.4-1.9,2.1-4,2.1-6.5V46.4z M185.5,36.6c2.7,0,5,1,6.9,2.9
		c1.9,1.9,2.9,4.2,2.9,6.9v6c0,2.7-1,5-2.9,6.9c-1.9,1.9-4.2,2.9-6.9,2.9h-9.8V36.6H185.5z M191.9,46.4c0-1.8-0.6-3.3-1.9-4.5
		c-1.3-1.3-2.8-1.9-4.5-1.9h-6.4v19h6.4c1.8,0,3.3-0.6,4.5-1.9c1.3-1.3,1.9-2.8,1.9-4.7V46.4z"/>
	<path fill="#FFFFFF" d="M218.4,92.2c0,1.3-0.7,2-2,2h-4c-1.3,0-2-0.7-2-2V34c0-1.3,0.7-2,2-2h4c0.5,0,1,0.2,1.4,0.6
		c0.4,0.4,0.6,0.9,0.6,1.4V92.2z M215,35.8c0-0.3-0.2-0.5-0.5-0.5h-0.3c-0.4,0-0.6,0.2-0.6,0.5v54.5c0,0.3,0.2,0.5,0.6,0.5h0.3
		c0.3,0,0.5-0.2,0.5-0.5V35.8z"/>
	<path fill="#FFFFFF" d="M243.4,31.9c2,0,3.9,0.4,5.6,1.1c1.7,0.8,3.2,1.8,4.6,3.1c1.3,1.3,2.4,2.9,3.1,4.6c0.8,1.7,1.1,3.6,1.1,5.6
		v6c0,2-0.4,3.9-1.1,5.7c-0.8,1.8-1.8,3.3-3.1,4.7c-1.3,1.3-2.9,2.4-4.6,3.1c-1.7,0.8-3.6,1.1-5.6,1.1h-6.5v25.2
		c0,0.5-0.2,1-0.6,1.4c-0.4,0.4-0.9,0.6-1.4,0.6h-4c-0.5,0-1-0.2-1.4-0.6c-0.4-0.4-0.6-0.9-0.6-1.4V67v-8V34c0-0.6,0.2-1.1,0.6-1.4
		c0.4-0.4,0.9-0.6,1.4-0.6H243.4z M254.6,46.4c0-3.1-1.1-5.7-3.3-7.9c-2.2-2.1-4.8-3.2-7.9-3.2h-10.7c-0.3,0-0.5,0.2-0.5,0.5v26.4
		v1.4v26.7c0,0.3,0.2,0.5,0.5,0.5h0.4c0.3,0,0.5-0.2,0.5-0.5V63.6h9.8c3.1,0,5.7-1.1,7.9-3.3c2.2-2.2,3.3-4.8,3.3-7.9V46.4z
		 M243.4,36.6c2.7,0,5,1,6.9,2.9c1.9,1.9,2.9,4.2,2.9,6.9v6c0,2.7-1,5-2.9,6.9c-1.9,1.9-4.2,2.9-6.9,2.9h-9.8V36.6H243.4z
		 M249.9,46.4c0-1.8-0.6-3.3-1.9-4.5c-1.3-1.3-2.8-1.9-4.5-1.9h-6.5v19h6.5c1.8,0,3.3-0.6,4.5-1.9c1.3-1.3,1.9-2.8,1.9-4.7V46.4z"/>
	<path fill="#FFFFFF" d="M287.3,52.7c-1.3,0-2-0.7-2-2v-4.3c0-1.8-0.6-3.3-1.9-4.5c-1.3-1.3-2.8-1.9-4.5-1.9s-3.3,0.6-4.5,1.9
		c-1.3,1.3-1.9,2.8-1.9,4.5c0,0.8,0,1.3,0.1,1.5c0,0.2,0.1,0.4,0.3,0.6l17.5,23.1c0.8,1,1.3,1.8,1.8,2.4c0.4,0.6,0.7,1.1,0.9,1.6
		c0.2,0.5,0.3,1,0.3,1.6c0,0.6,0.1,1.4,0.1,2.4c0,2-0.4,3.9-1.1,5.6c-0.8,1.7-1.8,3.2-3.1,4.6c-1.3,1.3-2.9,2.4-4.6,3.1
		c-1.7,0.8-3.6,1.1-5.6,1.1c-2,0-3.9-0.4-5.6-1.1c-1.7-0.8-3.2-1.8-4.6-3.1c-1.3-1.3-2.4-2.9-3.1-4.6c-0.8-1.7-1.1-3.6-1.1-5.6v-4.3
		c0-1.3,0.7-2,2-2h4c1.3,0,2,0.7,2,2v4.3c0,1.8,0.6,3.3,1.9,4.5s2.8,1.9,4.5,1.9s3.3-0.6,4.5-1.9c1.3-1.3,1.9-2.8,1.9-4.5
		c0-0.8,0-1.3-0.1-1.5c0-0.2-0.1-0.4-0.3-0.6l-17.5-23.1c-0.8-1-1.3-1.8-1.8-2.4c-0.4-0.6-0.7-1.1-0.9-1.6c-0.2-0.5-0.3-1-0.3-1.6
		c0-0.6-0.1-1.4-0.1-2.4c0-2,0.4-3.9,1.1-5.6c0.8-1.7,1.8-3.2,3.1-4.6c1.3-1.3,2.9-2.4,4.6-3.1c1.7-0.8,3.6-1.1,5.6-1.1
		c2,0,3.9,0.4,5.6,1.1c1.7,0.8,3.2,1.8,4.6,3.1c1.3,1.3,2.4,2.9,3.1,4.6c0.8,1.7,1.1,3.6,1.1,5.6v4.3c0,1.3-0.7,2-2,2H287.3z
		 M278.9,36.6c2.7,0,5,1,6.9,2.9c1.9,1.9,2.9,4.2,2.9,6.9v2.4c0,0.4,0.2,0.6,0.5,0.6h0.3c0.3,0,0.5-0.2,0.5-0.6v-2.4
		c0-3.1-1.1-5.7-3.2-7.9s-4.8-3.2-7.9-3.2c-3.2,0-5.8,1.1-7.8,3.3c-1.1,1-1.9,2.2-2.5,3.6c-0.5,1.4-0.8,2.8-0.8,4.2v0.1v-0.1v0.1V48
		c0,0.4,0.1,0.8,0.2,1.3c0.1,0.4,0.3,0.8,0.6,1l19.6,26.3c0.3,0.5,0.5,1,0.5,1.5v1.5v0.1v-0.1v0.1c0,2.7-1,5-2.9,6.9
		c-1.9,1.9-4.2,2.9-6.9,2.9c-2.7,0-5-1-6.9-2.9c-1.9-1.9-2.9-4.2-2.9-6.9v-2.4c0-0.4-0.2-0.6-0.5-0.6h-0.3c-0.3,0-0.5,0.2-0.5,0.6
		v2.4c0,3.1,1.1,5.7,3.2,7.9c2.1,2.1,4.8,3.2,7.9,3.2c3.2,0,5.8-1.1,7.8-3.3c2.2-2,3.3-4.6,3.3-7.8v-0.1v-1.5c0-0.4-0.1-0.8-0.2-1.3
		c-0.1-0.4-0.3-0.8-0.6-1l-19.6-26.3c-0.3-0.5-0.5-1-0.5-1.5v-1.5v-0.1c0-2.7,1-5,2.9-6.9C273.9,37.6,276.2,36.6,278.9,36.6z"/>
</g>
<g>
	<polygon fill="#FFFFFF" points="365.2,98.6 365,65.1 384.8,57.5 372.7,95.7 	"/>
	<g id="ZKRvVs.tif_2_">
		<g>
			<path fill="#F6EB0F" d="M327.3,77.6c-0.5,6.7-4.7,11.8-11.4,12.6c-3.2,0.4-6.5,0.4-9.6-0.8c-0.4-0.2-0.8-0.4-1.2-0.6
				c-0.2-0.1-0.3-0.2-0.9-0.7c2.7-0.7,5.2-0.5,7.2-1.4c0.5-0.2,4.4-3.4,4.8-3.8c-0.5,0-5.6,1.1-6.1,1.2c-2.1,0.7-4.2,1.6-6.3,2.3
				c-0.4,0.1-0.7,0.1-1.2,0.2c0.4-0.1-0.3,0-0.4-0.2c1.2-0.6,2.6-1.1,3.8-1.7c1.3-0.6,2.8-1.3,4-1.9c0.3-0.2,4.7-2.8,4.9-3.1
				c-0.4-0.1-5.4,1.5-5.7,1.6c-2.4,0.9-4.7,1.8-7.1,2.7c-0.3,0.1-0.5,0.1-0.8,0.1c-0.1-0.1-0.2-0.2-0.3-0.3c0.3-0.3,0.8-0.6,1.2-0.8
				c2-1,4-1.7,6-2.8c0.8-0.4,5.4-3.2,5.8-3.6c-0.5,0-5.9,0.5-7,1.1c-1.5,0.5-2.7,1.4-4.1,2c-0.6,0.2-1.1,0.8-2,1.4
				c0.3-0.9,0.4-1.7,0.7-2.4c2.1-4.2,5.2-7.5,9.4-9.4c4.6-2,9.4-0.7,13.2,2.3"/>
		</g>
	</g>
	<g>
		<path fill="#FFFFFF" d="M324.2,71.9c8-4.3,49.7-25.3,57.9-29.4c3.3-1.6,6.3-2.6,9.3-2.6c1.3,0,2.7,0.1,4,0.5
			c3.2,1,4.5,3.9,3.1,6.9c-1.4,3.2-4,5.3-7.1,6.5c-6.3,2.6-58,21.7-64.5,23.9"/>
	</g>
	<ellipse transform="matrix(0.9183 -0.396 0.396 0.9183 -2.9123 135.1775)" fill="#FFFFFF" cx="326" cy="74.6" rx="2.6" ry="3.3"/>
	<polygon fill="#FFFFFF" points="335,29.6 359.5,52.4 378.5,43 342.2,26 	"/>
	<polygon fill="#FFFFFF" points="336.8,87.5 336.7,75.7 345.2,72.3 342.9,85.1 	"/>
	<polygon fill="#FFFFFF" points="324.3,57.7 332.8,65.9 341.1,62.1 330.3,54.9 	"/>
</g>
</svg>
